<?xml version="1.0" encoding="UTF-8"?>
<svg width="336px" height="96px" viewBox="0 0 336 96" version="1.1" xmlns="http://www.w3.org/2000/svg" xmlns:xlink="http://www.w3.org/1999/xlink">
    <title>Greenly_logo</title>
    <g id="Greenly_logo" stroke="none" stroke-width="1" fill="none" fill-rule="evenodd">
        <g id="GreenlyLogo-Copy">
            <text id="Greenl" font-family="AvenirNext-Bold, Avenir Next" font-size="70.4587156" font-weight="bold" letter-spacing="-3.08256881" fill="#004621">
                <tspan x="0" y="70">Greenl</tspan>
            </text>
            <text id=".co" opacity="0.300000012" font-family="AvenirNext-Bold, Avenir Next" font-size="70.4587156" font-weight="bold" letter-spacing="-3.08256881" fill="#B6B6B6">
                <tspan x="243" y="70">.co</tspan>
            </text>
            <path d="M219.655046,87.3688073 C221.862752,87.3688073 223.776881,87.1104587 225.397431,86.5937615 C227.017982,86.0770642 228.427156,85.3137615 229.624954,84.3038532 C230.822752,83.293945 231.856147,82.0726606 232.725138,80.64 C233.594128,79.2073394 234.380917,77.5750459 235.085505,75.7431193 L250.797798,35.3702752 L238.537982,35.3702752 L231.562569,57.9170642 L231.351193,57.9170642 L223.530275,35.3702752 L210.706789,35.3702752 L225.362202,69.8950459 L224.234862,72.7838532 C223.671193,74.2869725 222.990092,75.4495413 222.19156,76.2715596 C221.393028,77.093578 220.101284,77.5045872 218.31633,77.5045872 C217.752661,77.5045872 217.130275,77.4458716 216.449174,77.3284404 C215.768073,77.2110092 215.145688,77.0583486 214.582018,76.8704587 L213.313761,86.5937615 C214.159266,86.8286239 215.157431,87.0165138 216.308257,87.1574312 C217.459083,87.2983486 218.574679,87.3688073 219.655046,87.3688073 Z" id="y-copy-5" fill="#004621" fill-rule="nonzero"></path>
            <g id="Group" transform="translate(213.137615, 30.825688)">
                <path d="M6.51743119,56.587547 C8.72513761,56.587547 10.6392661,56.3291984 12.2598165,55.8125011 C13.880367,55.2958039 15.2895413,54.5325011 16.4873394,53.5225929 C17.6851376,52.5126846 18.7185321,51.2914002 19.5875229,49.8587397 C20.4565138,48.4260791 21.2433028,46.7937855 21.9478899,44.9618589 L37.6601835,4.5890149 L25.400367,4.5890149 L17.6146789,25.6299868 C13.9904267,34.6482309 11.9904106,39.6583927 11.6146308,40.6604722 C11.0509611,42.1635914 9.85247706,44.668281 9.05394495,45.4902993 C8.25541284,46.3123177 6.96366972,46.7233268 5.1787156,46.7233268 C4.61504587,46.7233268 3.99266055,46.6646112 3.31155963,46.54718 C2.63045872,46.4297488 2.00807339,46.2770883 1.44440367,46.0891984 L0.176146789,55.8125011 C1.02165138,56.0473635 2.01981651,56.2352534 3.1706422,56.3761709 C4.32146789,56.5170883 5.43706422,56.587547 6.51743119,56.587547 Z" id="y-copy-12" fill="#07C25E" fill-rule="nonzero"></path>
                <polyline id="Path-4-Copy-2" stroke="#07C25E" stroke-width="8.80733945" points="17.6146789 6.6522107 33.3657908 -7.90141801e-14 40.6643542 14.6977433"></polyline>
            </g>
        </g>
    </g>
</svg>